PathFileType	4	(X/Y/Z)	/home/abdul/Desktop/myosuite/custom_workspace/IK/output/S19_12_1.trc
DataRate	CameraRate	NumFrames	NumMarkers	Units	OrigDataRate	OrigDataStartFrame	OrigNumFrames
200.0	200.0	48	3	mm	200.0	424	1694
Frame#	Time	V_Shoulder			V_Elbow			V_Wrist		
		X1	Y1	Z1	X2	Y2	Z2	X3	Y3	Z3

424	2.115	-98.48254307875409	629.090798417351	314.26469422943893				-74.7869799121548	217.2328132895201	63.961091549045555
425	2.12	-98.51084500079678	629.2811795204449	314.3050418643315				-74.85056806926343	218.03295483158092	64.51879750130831
426	2.125	-98.53980139300488	629.4743327037785	314.3460490714645				-74.91662691605279	218.8477881676571	65.07109901771885
427	2.13	-98.56941109803915	629.6702561123792	314.3877043283241				-74.9854938627086	219.67724447521874	65.61786437491092
428	2.135	-98.5996728832544	629.8689488661574	314.429996349398				-75.05751115710962	220.52124637833788	66.15899675104278
429	2.14	-98.63058546015652	630.070411105953	314.47291411216696				-75.13302512129803	221.37970813047815	66.69443485149597
430	2.145	-98.66214750329972	630.2746440365405	314.5164468824734				-75.21238537233282	222.25253580951048	67.2241534299098
431	2.15	-98.69435766857252	630.4816499664333	314.5605842391786				-75.29594402971479	223.1396275241945	67.74816370267476
432	2.155	-98.72721461082314	630.6914323443259	314.6053160980186				-75.3840549116002	224.0408736313853	68.2665136553741
433	2.16	-98.7607170007766	630.9039957920312	314.6506327345759				-75.4770727220373	224.9561569632545	68.77928824003274
434	2.165	-98.79486354119682	631.1193461337722	314.6965248062807				-75.57535223146934	225.88535306384642	69.28660946240583
435	2.17	-98.82965298225031	631.337490421699	314.74298337336245				-75.67924745274672	226.82833043432805	69.78863635891386
436	2.175	-98.86508413602847	631.5584369575134	314.7899999186725				-75.78911081488187	227.78495078633506	70.28556486320646
437	2.18	-98.90115589018872	631.7821953100889	314.837566366304				-75.90529233676165	228.75506930286022	70.77762756270998
438	2.185	-98.9378672206763	632.0087763289929	314.8856750989362				-76.02813880300617	229.73853490618205	71.26509334588485
439	2.19	-98.97521720349079	632.2381921538191	314.9343189738357				-76.15799294412723	230.73519053238138	71.74826694128463
440	2.195	-99.01320502546444	632.4704562192576	314.98349133744915				-76.29519262309839	231.74487341204832	72.22748834986871
441	2.2	-99.0518299940203	632.7055832558377	315.033186038529				-76.44007003039863	232.7674153568356	72.70313217237477
442	2.205	-99.09109154588232	632.9435892862895	315.08339743973346				-76.59295088953576	233.80264305156965	73.17560683390042
443	2.21	-99.13098925471097	633.1844916174882	315.1341204276512				-76.75415367499345	234.8503783516844	73.64535370817894
444	2.215	-99.17152283764102	633.42830882795	315.1853504212024				-76.92398884447877	235.91043858579567	74.1128461443573
445	2.22	-99.21269216070073	633.6750607508665	315.23708337837274				-77.10275808727421	236.98263686328454	74.57858839939581
446	2.225	-99.25449724309419	633.9247684526739	315.2893158012459				-77.29075359042166	238.06678238680593	75.04311447950603
447	2.23	-99.29693826033188	634.1774542071711	315.34204473929793				-77.48825732438563	239.16268076968277	75.50698689432676
448	2.235	-99.3400155461964	634.4331414652028	315.39526779092876				-77.6955403497596	240.2701343581862	75.97079532780444
449	2.24	-99.38372959353437	634.6918548199513	315.44898310320764				-77.91286214649348	241.38894255873583	76.43515522999584
450	2.245	-99.4280810538671	634.9536199678789	315.50318936981586				-78.14046996703266	242.5189021700848	76.90070633424209
451	2.25	-99.4730707358162	635.2184636653863	315.5578858271747				-78.37859821467028	243.65980772057515	77.36811110437942
452	2.255	-99.51869960234337	635.4864136812571	315.6130722487532				-78.6274678483251	244.81145181056644	77.83805311684597
453	2.26	-99.56496876680585	635.7574987449774	315.6687489375551				-78.88728581486673	245.9736254601479	78.31123538272014
454	2.265	-99.61187948783258	636.031748491023	315.72491671679				-79.15824451002153	247.14611846224517	78.78837861488182
455	2.27	-99.65943316302848	636.3091933992297	315.7815769187395				-79.44052126880312	248.328719741226	79.27021944562166
456	2.275	-99.70763132151774	636.5898647313604	315.83873137183537				-79.73427788632407	249.52121771709216	79.7575086001381
457	2.28	-99.75647561533891	636.8737944640066	315.89638238597064				-80.03966016975943	250.7234006753209	80.2510090314536
458	2.285	-99.80596780970905	637.1610152179609	315.9545327360722				-80.35679752214865	251.93505714238492	80.75149402235307
459	2.29	-99.8561097721747	637.4515601842173	316.0131856439676				-80.68580255864032	253.15597626693744	81.25974525999645
460	2.295	-99.90690346067312	637.7454630467577	316.07234475858513				-81.02677075570429	254.38594820659796	81.77655088888653
461	2.3	-99.95835091052685	638.0427579022958	316.13201413453174				-81.37978013375914	255.62476452021338	82.30270354787933
462	2.305	-100.01045422040026	638.3434791771623	316.19219820909683				-81.74489097358779	256.8722185653997	82.83899839691048
463	2.31	-100.06321553724781	638.6476615415114	316.2529017777383				-82.12214556684282	258.1281059010933	83.38623113907744
464	2.315	-100.11663704028636	638.9553398210503	316.3141299681094				-82.5115680008745	259.3922246947542	83.94519604366167
465	2.32	-100.17072092402731	639.2665489064907	316.375888212692				-82.9131639780477	260.664376133771	84.51668397560172
466	2.325	-100.22546938040635	639.58132366093	316.4381822201054				-83.32692066965178	261.9443648405171	85.1014804368345
467	2.33	-100.28088458005068	639.8996988253786	316.5010179451642				-83.75280660444662	263.2319992904015	85.70036362481117
468	2.335	-100.33696865272668	640.2217089226478	316.56440155776556				-84.19077159183048	264.5270922321449	86.31410251336547
469	2.34	-100.39372366701245	640.5473881598256	316.62833941068567				-84.64074667956099	265.82946110939537	86.94345496096693
470	2.345	-100.45115160924259	640.8767703295608	316.69283800637436				-85.10264414590732	267.1389284826767	87.58916585123086
471	2.35	-100.50925436177408	641.209888710391	316.7579039628367				-85.57635752606268	268.45532245053835	88.25196527038145
